<?xml version="1.0" encoding="UTF-8"?>
<svg width="100px" height="100px" viewBox="0 0 100 100" version="1.1" xmlns="http://www.w3.org/2000/svg" xmlns:xlink="http://www.w3.org/1999/xlink">
    <!-- Generator: Sketch 60.1 (88133) - https://sketch.com -->
    <title>partners</title>
    <desc>Created with Sketch.</desc>
    <g id="Page-1" stroke="none" stroke-width="1" fill="none" fill-rule="evenodd">
        <g id="Home" transform="translate(-198.000000, -1256.000000)" fill-rule="nonzero">
            <g id="BArs" transform="translate(66.000000, 1206.000000)">
                <g id="1" transform="translate(0.000000, 4.000000)">
                    <g id="partners" transform="translate(132.000000, 46.000000)">
                        <path d="M26.0131618,77.4269646 L26.0131618,97.2124375 L1.8575625,97.2124375 L1.8575625,70.7429551 C1.8575625,64.5015286 6.92706954,59.442 13.1803725,59.442 L15.8642633,59.442 C20.8895815,59.442 25.7852404,61.0347573 29.8449936,63.9908559 L47.394942,76.7690866 C48.7397946,77.7482629 49.535,79.3096834 49.535,80.9711107 L49.535,80.9711107 C49.535,85.0191592 45.1060374,87.5154589 41.6327555,85.4253761 L22.9935907,74.2087593" id="Path" fill="#A0E557"></path>
                        <path d="M73.0568382,77.4269646 L73.0568382,97.2124375 L97.2124375,97.2124375 L97.2124375,70.7429551 C97.2124375,64.5015286 92.1429305,59.442 85.8896275,59.442 L83.2057367,59.442 C78.1804185,59.442 73.2847596,61.0347573 69.2250064,63.9908559 L51.675058,76.7690866 C50.3302054,77.7482629 49.535,79.3096834 49.535,80.9711107 L49.535,80.9711107 C49.535,85.0191592 53.9639626,87.5154589 57.4372445,85.4253761 L76.0764093,74.2087593" id="Path" fill="#72D8FF"></path>
                        <g id="Group" transform="translate(5.572687, 40.247188)" fill="#FCC69D">
                            <path d="M8.54507808,0.00191948125 L8.54507808,0.00191948125 C3.89972706,0.00191948125 0.134007926,3.75066636 0.134007926,8.37508059 L0.134007926,10.767522 C0.134007926,15.3919362 3.89972706,19.1406831 8.54507808,19.1406831 L8.54507808,19.1406831 C13.1904291,19.1406831 16.9561482,15.3919362 16.9561482,10.767522 L16.9561482,8.37508059 C16.9561482,3.75085831 13.1904291,0.00191948125 8.54507808,0.00191948125 Z" id="Path"></path>
                            <path d="M79.3795469,0.00191948125 L79.3795469,0.00191948125 C84.0248979,0.00191948125 87.7906171,3.75066636 87.7906171,8.37508059 L87.7906171,10.767522 C87.7906171,15.3919362 84.0248979,19.1406831 79.3795469,19.1406831 L79.3795469,19.1406831 C74.7341959,19.1406831 70.9684768,15.3919362 70.9684768,10.767522 L70.9684768,8.37508059 C70.9684768,3.75085831 74.7341959,0.00191948125 79.3795469,0.00191948125 Z" id="Path"></path>
                        </g>
                        <path d="M91.7705676,59.0057096 C94.0203423,57.109207 95.4524041,54.2794804 95.4524041,51.1214684 L95.4524041,48.720208 C95.4524041,43.0239574 90.7978647,38.389625 85.0767768,38.389625 C79.355689,38.389625 74.7011495,43.0239574 74.7011495,48.720208 L74.7011495,51.1214684 C74.7011495,53.8666193 75.7841451,56.3630516 77.5443756,58.2150507 C74.1425274,58.9706462 70.9258546,60.4124814 68.0524433,62.4995204 L50.5310192,75.2263548 C50.1687952,75.4895224 49.8367566,75.7852489 49.5349033,76.1064059 C49.2330499,75.7852489 48.9008178,75.4895224 48.5387873,75.2263548 L31.0173632,62.4995204 C28.1439519,60.4124814 24.9272791,58.9706462 21.5254309,58.2150507 C23.2856614,56.3630516 24.3688505,53.8666193 24.3688505,51.1214684 L24.3688505,48.720208 C24.3688505,43.0239574 19.714311,38.389625 13.9932232,38.389625 C8.27213535,38.389625 3.6175959,43.0239574 3.6175959,48.720208 L3.6175959,51.1214684 C3.6175959,54.2794804 5.0496577,57.109207 7.29943238,59.0057096 C2.97480314,61.1773244 0,65.6382668 0,70.7806322 L0,97.1434432 C0,98.2072879 0.866473815,99.07 1.93495716,99.07 L26.0512957,99.07 C27.119779,99.07 27.9862529,98.2072879 27.9862529,97.1434432 L27.9862529,79.4532204 L40.646484,87.0534871 C42.8807791,88.394756 45.570563,88.4327091 47.8422027,87.1555946 C48.4838345,86.7947505 49.049229,86.3489453 49.5349033,85.839949 C50.0205775,86.3491379 50.585972,86.7949432 51.2276038,87.1555946 C52.3330448,87.7772945 53.5375556,88.0872775 54.7401315,88.0872775 C56.0090764,88.0872775 57.2762799,87.7420385 58.423129,87.0534871 L71.0835536,79.4532204 L71.0835536,97.1434432 C71.0835536,98.2072879 71.9500275,99.07 73.0185108,99.07 L97.1348493,99.07 C98.2033327,99.07 99.07,98.2072879 99.07,97.1434432 L99.07,90.1827934 C99.07,89.1189487 98.2033327,88.2562365 97.1348493,88.2562365 C96.066366,88.2562365 95.1998922,89.1189487 95.1998922,90.1827934 L95.1998922,95.2168864 L74.953468,95.2168864 L74.953468,77.4376567 C74.953468,77.337861 74.9434062,77.2405699 74.928894,77.1448201 L77.0321924,75.8821547 C77.9474272,75.3327007 78.2419277,74.1488315 77.6900779,73.2375702 C77.1380346,72.3263088 75.9484229,72.0325089 75.0339622,72.5825408 L56.4248987,83.7538732 C55.4018869,84.3680596 54.1702866,84.3853986 53.1306341,83.8004959 C52.0907882,83.2157859 51.4698604,82.1567576 51.4698604,80.9674941 C51.4698604,79.9319698 51.9715948,78.9492332 52.8119467,78.3389 L70.3333708,65.6120656 C74.0804153,62.8902261 78.5126282,61.4516661 83.1511075,61.4516661 L85.8304426,61.4516661 C90.9967782,61.4516661 95.2000857,65.6365329 95.2000857,70.7804396 L95.2000857,74.1494095 C95.2000857,75.2132542 96.0665595,76.0759663 97.1350428,76.0759663 C98.2035262,76.0759663 99.07,75.2132542 99.07,74.1494095 L99.07,70.7804396 C99.07,65.6382668 96.0950034,61.1773244 91.7705676,59.0057096 Z M7.48731672,48.720208 C7.48731672,45.1485643 10.4058126,42.2427386 13.9930297,42.2427386 C17.5802468,42.2427386 20.4987426,45.1485643 20.4987426,48.720208 L20.4987426,51.1214684 C20.4987426,54.6931121 17.5802468,57.5989378 13.9930297,57.5989378 C10.4058126,57.5989378 7.48731672,54.6931121 7.48731672,51.1214684 L7.48731672,48.720208 Z M45.9391724,83.8004959 C44.8989394,84.3852059 43.6675327,84.3676742 42.6447143,83.7538732 L24.0358443,72.5825408 C23.1208031,72.0327015 21.9313849,72.3265014 21.3797286,73.2375702 C20.8278789,74.1486389 21.1223793,75.3327007 22.0376141,75.8821547 L24.1385905,77.1434715 C24.1238849,77.239414 24.116145,77.3376684 24.116145,77.4376567 L24.116145,95.2168864 L3.86991432,95.2168864 L3.86991432,70.7806322 C3.86991432,65.6367255 8.07322175,61.4518588 13.2395574,61.4518588 L15.9188925,61.4518588 C20.5573718,61.4518588 24.9895847,62.8904188 28.7366292,65.6122582 L46.2580533,78.3390926 C47.0984052,78.9494258 47.6001396,79.9321625 47.6001396,80.9676868 C47.6001396,82.1567576 46.9790183,83.2157859 45.9391724,83.8004959 Z M78.5710639,48.720208 C78.5710639,45.1485643 81.4895597,42.2427386 85.0767768,42.2427386 C88.6639939,42.2427386 91.5824898,45.1485643 91.5824898,48.720208 L91.5824898,51.1214684 C91.5824898,54.6931121 88.6639939,57.5989378 85.0767768,57.5989378 C81.4895597,57.5989378 78.5710639,54.6931121 78.5710639,51.1214684 L78.5710639,48.720208 Z" id="Shape" fill="#FFFFFF"></path>
                        <path d="M97.2124375,79.8751875 C96.7238986,79.8751875 96.2446474,80.0722749 95.8991408,80.4175958 C95.5536342,80.7649599 95.354875,81.2423535 95.354875,81.7308924 C95.354875,82.2212889 95.5534484,82.6986825 95.8991408,83.0460467 C96.2446474,83.3915533 96.7238986,83.5903125 97.2124375,83.5903125 C97.7009764,83.5903125 98.1802276,83.3917391 98.5255484,83.0460467 C98.8710551,82.6986825 99.07,82.2212889 99.07,81.7308924 C99.07,81.2423535 98.8712408,80.7631024 98.5255484,80.4175958 C98.1802276,80.0722749 97.7009764,79.8751875 97.2124375,79.8751875 Z" id="Path" fill="#000000"></path>
                        <path d="M24.3326303,28.0338647 L36.6658559,15.6911111 L51.3597777,30.3961556 C51.7350373,30.7716993 52.226737,30.959375 52.7184366,30.959375 C53.2101362,30.959375 53.7018359,30.7716993 54.0770955,30.3961556 L77.8898455,6.5653804 L77.8898455,8.26849888 C77.8898455,9.33052026 78.7502718,10.1914056 79.8112977,10.1914056 C80.8723237,10.1914056 81.73275,9.33052026 81.73275,8.26849888 L81.73275,1.92290672 C81.73275,0.860885337 80.8723237,0 79.8112977,0 L73.4705053,0 C72.4094794,0 71.549053,0.860885337 71.549053,1.92290672 C71.549053,2.9849281 72.4094794,3.84581343 73.4705053,3.84581343 L75.1723356,3.84581343 L52.7182445,26.3170936 L38.0243226,11.6120491 C37.6638582,11.2515041 37.1752329,11.0488297 36.6656637,11.0488297 C36.1560946,11.0488297 35.6674693,11.2515041 35.3070048,11.6120491 L21.6151203,25.3142978 C20.8647932,26.0653851 20.8647932,27.2827774 21.6151203,28.0338647 C22.3656396,28.7849521 23.5819189,28.7847598 24.3326303,28.0338647 Z" id="Path" fill="#FFFFFF"></path>
                        <path d="M17.9564375,33.436125 C18.4449764,33.436125 18.9242276,33.2373658 19.2695484,32.8918592 C19.6150551,32.5463526 19.814,32.0671014 19.814,31.5785625 C19.814,31.088166 19.6152408,30.6107724 19.2695484,30.2652658 C18.9242276,29.9197592 18.4449764,29.721 17.9564375,29.721 C17.4678986,29.721 16.9886474,29.9197592 16.6431408,30.2652658 C16.2976342,30.6107724 16.098875,31.0900236 16.098875,31.5785625 C16.098875,32.0671014 16.2974484,32.5463526 16.6431408,32.8918592 C16.9888332,33.2373658 17.4678986,33.436125 17.9564375,33.436125 Z" id="Path" fill="#FFFFFF"></path>
                    </g>
                </g>
            </g>
        </g>
    </g>
</svg>