<?xml version="1.0" encoding="utf-8"?>
<!-- Generator: Adobe Illustrator 24.0.1, SVG Export Plug-In . SVG Version: 6.00 Build 0)  -->
<svg version="1.1" id="Layer_2_1_" xmlns="http://www.w3.org/2000/svg" xmlns:xlink="http://www.w3.org/1999/xlink" x="0px" y="0px"
	 viewBox="0 0 512 512" style="enable-background:new 0 0 512 512;" xml:space="preserve">
<style type="text/css">
	.st0{fill:#E5E5E5;}
</style>
<g>
	<path class="st0" d="M354.7,269.3c5-6.3,12.1-8,19.4-8.2c5.1-0.1,10.2,0.9,15.3,1.7c3.1,0.5,3.8,0.1,3.6-3.2
		c-0.3-4.7-3-8.2-7.8-9.8c-7.1-2.4-14-1.2-20.8,1.3c-4.6,1.7-4.6,1.7-6.1-2.9c-0.9-3.1-1.8-6.2-2.6-9.3c-0.5-1.7-0.2-3,1.5-3.8
		c12.6-5.8,25.5-7.5,38.8-2.4c9.1,3.5,13.3,10.8,14.1,19.9c1,10.5,1.1,21.2,1.4,31.7c0.2,6.5,0,12.9,0,19.4c0,4.1-0.4,4.4-4.6,4.4
		c-3.3,0-6.7-0.1-10,0c-2.7,0.1-4-0.8-3.7-3.7c0.1-1-0.2-2.1-0.3-3.6c-2.2,1.4-3.9,2.5-5.6,3.6l0,0c-7.1,5.7-15,7-23.5,3.8
		c-10-3.8-14.9-11.2-14.8-21.9C349.2,280,350.2,274.1,354.7,269.3C354.8,269.3,354.7,269.3,354.7,269.3z M387.5,292.9L387.5,292.9
		c3.2-3,5.9-6.4,6.5-10.9c0.3-2.3,0.4-4.9-2.1-6.2c-6.3-3.1-12.8-3.6-19.3-0.5c-4.2,2-5.5,5.9-5.2,10.4c0.2,4.3,2.3,7.1,6.4,8.6
		C378.7,296.2,383.1,295,387.5,292.9z"/>
	<path class="st0" d="M242,237.7c4.8,3.8,7.6,9,8.8,14.8c1.4,6.5,1.8,13.1,2.6,19.7c0.3,2.8-1,3.7-3.7,3.7c-12.7-0.1-25.4,0-38.1,0
		c-5.4,0-6.3,1.5-4.1,6.4c4.8,10.4,17.4,13.2,27.2,6c5.3-3.9,5.3-3.9,9.6,1.1c1.6,1.8,3.3,3.6,4.9,5.3l0,0c0,0.4,0,0.8,0,1.2l0,0
		c-9.2,13.6-27.4,17.7-43,9.7l0,0c-1.6-1.2-3.2-2.4-4.8-3.6l0,0c-5.3-3.4-8.7-8.5-10.8-14.2c-6.1-16.4-4.7-32.1,5.6-46.5
		c9.8-13.8,30.4-16.5,43.6-5.9C240.5,236,241.2,236.9,242,237.7L242,237.7z M205.6,260.8L205.6,260.8c0.8,0.7,1.6,1.9,2.4,1.9
		c8.2,0.2,16.4,0.1,24.5,0.2c2,0,2.7-1,2.2-2.6c-0.7-2.4-1.3-4.9-2.6-7c-5-8.5-16.7-9.1-22.3-1.1C208,254.7,207,257.9,205.6,260.8z"
		/>
	<path class="st0" d="M64.9,234.1c7.3-5.3,15.3-6.3,23.9-4.3c11.2,2.6,18.3,9.8,22.3,20.3c2.7,7.2,3.7,14.6,3.5,22.3
		c-0.1,2.8-1.2,3.7-3.8,3.6c-12.4-0.1-24.8,0-37.3,0c-0.9,0-1.8,0-2.7,0c-3.3,0.2-3.9,1.1-3,4.3c3.1,11.2,16.7,15.6,26.9,8.6
		c1-0.7,2.1-1.3,2.9-2.2c2.2-2.6,4-1.9,5.9,0.4c1.7,2,3.4,3.9,5.1,5.9l0,0c2.1,1.4,2.1,3.1,0.5,4.7c-1.3,1.3-2.7,2.5-4.1,3.8
		c0-0.1-0.1-0.1-0.1-0.2c0,0.1,0.1,0.1,0.1,0.2c-6.6,6.8-14.9,9.2-24,8.1c-17.9-2.1-28.4-12.2-32-31.1c-3-15.9,0.6-30,12.4-41.6
		C62.4,235.8,63.7,235,64.9,234.1c0.1,0,0.1,0,0.2,0.1C65,234.1,65,234.1,64.9,234.1z M81.1,263.1L81.1,263.1c3.9,0,7.9,0.1,11.8,0
		c1.9,0,3.2-0.8,2.8-2.9c-0.8-5-2.9-9.3-7.5-11.8c-9.4-5-20.5,1.4-21.2,12.3c-0.1,2,0.9,2.4,2.6,2.4
		C73.4,263.1,77.3,263.1,81.1,263.1z"/>
	<path class="st0" d="M123.1,247.4c1.4-2.2,2.8-4.5,4.3-6.7l0,0c3.7-5.3,8.8-8.5,14.8-10.4c14.1-4.5,28.9,1.5,35.5,14.1l0,0
		c5.3,8.9,6.6,18.7,6.5,28.8c0,2.4-1.6,2.9-3.8,2.9c-13-0.1-26.1-0.2-39.1-0.2c-4.4,0-5.2,1.1-3.7,5.3c3.4,9.7,15.2,13.9,24.6,8.8
		c1.7-0.9,3.2-2.1,4.7-3.3c3.3-2.5,3.3-2.5,5.9,0.7l0,0c1.9,1.8,3.8,3.6,5.7,5.4c1.8,1.6,1.8,3.3,0.1,4.9c-1.3,1.2-2.6,2.4-4,3.6
		l0,0c-1.6,1.2-3.2,2.4-4.9,3.7l0,0c-9,5.9-18.6,6-28.4,2.6c-15.3-5.2-21.2-17.6-23.6-32.3c-1.4-8.5,0.1-16.7,3.3-24.6
		C121.6,249.6,122.5,248.6,123.1,247.4L123.1,247.4z M150.9,263.2c3.9,0,7.9,0,11.8,0c1.6,0,2.8-0.5,2.6-2.4
		c-0.4-5.4-2.7-9.6-7.5-12.4c-7.9-4.6-19.5,0.1-21.3,11.9c-0.3,2.2,0.9,2.9,2.9,2.9C143.2,263.2,147,263.2,150.9,263.2z"/>
	<path class="st0" d="M477.8,239.5c3.3,5.1,3.9,10.9,4,16.6c0.3,16.1,0.1,32.1,0.2,48.2c0,2.7-1,3.9-3.8,3.8
		c-3.7-0.1-7.5-0.2-11.2,0c-3,0.1-3.9-1.1-3.8-3.9c0.1-12.5,0.1-25,0-37.6c0-3.4-0.6-6.9-1.5-10.1c-1.6-5.6-6.5-8.5-12.1-7.8
		c-5.9,0.8-10,5.1-10.1,11c-0.3,14.5-0.4,29.1-0.7,43.6c-0.1,4.7-0.1,4.7-4.7,4.7c-3.5,0-7.1-0.1-10.6,0c-2.9,0.1-3.9-0.9-3.9-3.8
		c0.1-10.7,0-21.4,0-32.1c0-12.2,0-24.4,0-36.7c0-4.4,0.5-4.9,4.9-4.9c3.4,0,6.9,0.1,10.3,0c2.8-0.1,4.2,0.8,3.7,3.9
		c-0.3,1.8,0,3.7,0,5.5c0.3,0.1,0.7,0.2,1,0.3c0.8-0.8,1.6-1.6,2.3-2.5c7.5-8.9,16.6-11.1,27.2-6.6
		C473.1,232.8,476,235.7,477.8,239.5c-0.2,0.2-0.4,0.4-0.6,0.6l0,0C477.4,239.9,477.6,239.7,477.8,239.5z"/>
	<path class="st0" d="M269.3,300.2c-1.9-2.1-4-3.9-5.6-6.2c-11-16.4-9.2-40.4,4.2-54.8c1.4-1.5,3.3-2.6,5-3.9c0,0.1,0.1,0.1,0.1,0.2
		c0-0.1-0.1-0.1-0.1-0.2c10.6-7.5,22-8.6,33.8-3.3c3.3,1.5,6.3,4,9,6.5c3.6,3.2,3.4,4.5-0.3,7.7l0,0c-1.4,1.8-2.8,3.6-4.3,5.5l0,0
		c-0.4,0.7-0.8,1.4-1.3,2c-1.4,1.9-2.8,2.3-4.6,0.3c-2.7-3-6-4.9-10.1-5.7c-4.9-0.9-9.2,0.4-13,3.5c-8.2,6.7-11.4,27.5,2,36.2
		c5.9,3.8,11.8,3.4,17.7,0c2.2-1.3,4.2-2.8,6.2-4.2l0,0c0.4,0,1-0.2,1.1,0c3.1,3.5,6.3,6.9,9.2,10.6c0.4,0.5-0.3,2.2-0.9,3.1
		c-0.7,1-1.8,1.8-2.8,2.7l0,0c-8.3,8.8-18.5,11.4-30,8.4c-4.1-1.1-7.9-3.5-11.9-5.4l0,0C271.7,302.2,270.5,301.2,269.3,300.2
		C269.2,300.2,269.3,300.2,269.3,300.2z M314.7,240.2L314.7,240.2c0.2,0.2,0.4,0.4,0.6,0.6l0,0C315.1,240.6,314.9,240.4,314.7,240.2
		z"/>
	<path class="st0" d="M29.1,267.7c0,4.6-0.1,9.3,0,13.9c0.2,7.6,3.3,10.1,10.6,8.3c5.1-1.2,5.1-1.2,5.1,4c0,2.9,0.3,5.9-0.1,8.8
		c-0.2,1.4-1.3,3.3-2.6,3.9c-6.2,3.4-12.8,4-19.7,2c-7-2-11.3-8.3-11.5-17.1c-0.3-12.9-0.4-25.8-0.5-38.8c0-2.6-0.5-3.6-3.4-3.3
		c-4.3,0.6-5-0.3-5-4.7c0-3.7,0.1-7.5,0.1-11.2c0-2,1-2.8,3-3c5.1-0.4,5.3-0.7,5.3-5.9c0-3.8,0-7.7,0-11.5c0-1.8,0.6-2.9,2.6-2.8
		c4.2,0.1,8.5,0.1,12.7,0.1c2.3,0,3.3,1,3.3,3.3c0,4.3,0.1,8.7,0,13c-0.1,2.8,0.7,4.1,3.7,3.8c2.9-0.3,5.9-0.1,8.8,0.1
		c2.5,0.1,3.9,1.3,3.8,4c-0.1,3.7-0.1,7.5,0,11.2c0.1,2.5-1.2,3.4-3.5,3.4c-3,0-6.1,0.1-9.1,0.2c-2.6,0.1-3.8,1.4-3.7,4
		C29.2,258.2,29.1,263,29.1,267.7z"/>
	<path class="st0" d="M324.5,255.1c0-16,0-31.9,0-47.9c0-4.8,0.4-5.2,5.2-5.2c3.4,0,6.9,0.1,10.3,0c2.6-0.1,3.8,1,3.7,3.6
		c-0.2,3.5-0.4,7.1-0.4,10.6c0,29.2,0.1,58.4,0.1,87.5c0,3.8-0.5,4.3-4.4,4.3c-3.4,0-6.9,0-10.3,0c-3.7,0-4.2-0.4-4.2-4.2
		C324.5,287.6,324.5,271.4,324.5,255.1z"/>
	<path class="st0" d="M510,296.8c0,2.8,0,5.7,0,8.5c0,1.9-0.9,2.8-2.8,2.8c-4.7,0-9.5,0-14.2,0c-2,0-2.9-1.1-2.9-3
		c0-5.5,0-10.9,0-16.4c0-2,1-2.9,3-2.9c4.6,0,9.3,0,13.9,0c2.3,0,3,1.1,3,3.2C509.9,291.5,510,294.1,510,296.8L510,296.8z"/>
	<path class="st0" d="M249.2,294.7c0,0.4,0,0.8,0,1.2l0,0C249.2,295.5,249.2,295.1,249.2,294.7L249.2,294.7z"/>
	<path class="st0" d="M354.7,269.3C354.7,269.3,354.8,269.3,354.7,269.3C354.8,269.3,354.7,269.3,354.7,269.3z"/>
	<path class="st0" d="M387.5,292.9L387.5,292.9L387.5,292.9z"/>
	<path class="st0" d="M387.5,304.4L387.5,304.4L387.5,304.4z"/>
	<path class="st0" d="M249.2,294.7c0,0.4,0,0.8,0,1.2C249.2,295.5,249.2,295.1,249.2,294.7z"/>
	<path class="st0" d="M205.6,260.8L205.6,260.8L205.6,260.8z"/>
	<path class="st0" d="M242,237.7L242,237.7L242,237.7z"/>
	<path class="st0" d="M201.3,302L201.3,302L201.3,302z"/>
	<path class="st0" d="M206.2,305.6C206.2,305.6,206.2,305.7,206.2,305.6C206.2,305.7,206.2,305.6,206.2,305.6z"/>
	<path class="st0" d="M64.9,234.1c0.1,0,0.1,0,0.2,0.1C65,234.1,65,234.1,64.9,234.1L64.9,234.1z"/>
	<path class="st0" d="M104.9,301.4c0-0.1-0.1-0.1-0.1-0.2C104.8,301.3,104.9,301.4,104.9,301.4L104.9,301.4z"/>
	<path class="st0" d="M108.5,292.9C108.5,292.9,108.6,292.9,108.5,292.9C108.6,292.9,108.5,292.9,108.5,292.9z"/>
	<path class="st0" d="M127.3,240.8C127.3,240.8,127.4,240.8,127.3,240.8C127.4,240.8,127.3,240.8,127.3,240.8z"/>
	<path class="st0" d="M177.7,244.4L177.7,244.4L177.7,244.4z"/>
	<path class="st0" d="M123.1,247.4L123.1,247.4L123.1,247.4z"/>
	<path class="st0" d="M172.8,287.4C172.8,287.4,172.8,287.5,172.8,287.4C172.8,287.5,172.8,287.4,172.8,287.4z"/>
	<path class="st0" d="M174.7,301.4C174.7,301.4,174.6,301.4,174.7,301.4C174.6,301.4,174.7,301.4,174.7,301.4z"/>
	<path class="st0" d="M169.8,305L169.8,305L169.8,305z"/>
	<path class="st0" d="M477.8,239.5c-0.2,0.2-0.4,0.4-0.6,0.6l0,0C477.4,240,477.7,239.8,477.8,239.5
		C477.9,239.6,477.8,239.5,477.8,239.5z"/>
	<path class="st0" d="M477.2,240.2L477.2,240.2L477.2,240.2z"/>
	<path class="st0" d="M272.9,235.3c0,0.1,0.1,0.1,0.1,0.2C273,235.4,272.9,235.4,272.9,235.3L272.9,235.3z"/>
	<path class="st0" d="M314.7,240.2c0.2,0.2,0.4,0.4,0.6,0.6l0,0C315.1,240.6,314.9,240.4,314.7,240.2L314.7,240.2z"/>
	<path class="st0" d="M315.3,240.8L315.3,240.8L315.3,240.8z"/>
	<path class="st0" d="M315.3,246.2L315.3,246.2L315.3,246.2z"/>
	<path class="st0" d="M311.1,251.7L311.1,251.7L311.1,251.7z"/>
	<path class="st0" d="M308.1,283.8L308.1,283.8L308.1,283.8z"/>
	<path class="st0" d="M269.3,300.2C269.3,300.2,269.2,300.2,269.3,300.2C269.2,300.2,269.3,300.2,269.3,300.2z"/>
	<path class="st0" d="M314.7,300.2L314.7,300.2L314.7,300.2z"/>
	<path class="st0" d="M314.7,240.2L314.7,240.2L314.7,240.2z"/>
	<path class="st0" d="M272.9,303.2L272.9,303.2L272.9,303.2z"/>
</g>
</svg>
